<?xml version="1.0" standalone="no"?>
<!DOCTYPE svg PUBLIC "-//W3C//DTD SVG 20010904//EN"
 "http://www.w3.org/TR/2001/REC-SVG-20010904/DTD/svg10.dtd">
<svg version="1.0" xmlns="http://www.w3.org/2000/svg"
 width="700.000000pt" height="700.000000pt" viewBox="0 0 700.000000 700.000000"
 preserveAspectRatio="xMidYMid meet">
<metadata>
Created by potrace 1.11, written by Peter Selinger 2001-2013
</metadata>
<g transform="translate(0.000000,700.000000) scale(0.100000,-0.100000)"
fill="#000000" stroke="none">
<path d="M3920 4872 c-98 -4 -323 -32 -425 -52 -346 -67 -670 -190 -974 -371
l-103 -61 -27 19 c-92 68 -228 53 -298 -32 -52 -62 -66 -163 -32 -226 10 -20
7 -27 -41 -71 -29 -26 -59 -48 -66 -48 -8 0 -48 -16 -89 -35 -86 -41 -180
-129 -233 -218 -82 -137 -141 -335 -167 -559 -3 -27 -8 -69 -11 -95 -6 -52 -6
-375 0 -433 2 -19 7 -68 11 -108 3 -41 9 -83 11 -95 3 -12 7 -40 10 -62 3 -22
12 -69 20 -105 8 -36 17 -76 20 -90 10 -50 67 -217 96 -280 64 -136 146 -229
234 -266 44 -18 145 -21 187 -5 24 10 27 8 27 -12 1 -52 3 -52 242 -52 193 1
338 7 453 20 17 2 57 6 90 10 62 6 278 42 305 50 8 3 33 7 55 11 113 17 427
109 612 178 392 146 721 325 1069 581 214 159 485 409 683 632 l73 82 -23 33
c-13 18 -81 107 -152 198 -71 91 -140 179 -153 195 -63 81 -216 277 -260 335
-136 174 -606 777 -617 790 -7 8 -26 33 -42 55 -56 75 -71 85 -133 86 -143 3
-302 4 -352 1z"/>
</g>
</svg>
