<svg xmlns="http://www.w3.org/2000/svg" viewBox="0 0 2048 2048" width="2048" height="2048">
	<style>
		tspan { white-space:pre }
		.shp0 { mix-blend-mode: lighten } 
		.shp1 { fill: #000000 } 
	</style>
	<g id="v4">
		<path id="bottom" fill-rule="evenodd" fill="#ce1f3c" d="M608.6 1574.36C793.7 1584.77 978.31 1554.7 1149.99 1485.7C1346.09 1406.88 1518.9 1279.81 1653.68 1116.32C1526.28 952.86 1398.87 789.39 1271.47 625.93C1118.77 612.5 965.43 638.21 825.86 701.11C698.83 758.36 587.13 844.64 499.19 953.03C535.66 1160.14 572.13 1367.25 608.6 1574.36Z" />
		<path id="top" fill-rule="evenodd" fill="#434343" class="shp0" d="M498.98 952.24C662.84 938.08 821.96 894.84 969.7 823.82C1078.7 771.42 1179.81 704.75 1271.25 625.15C1154.14 614.8 1037.1 627.09 925.64 662.08C758.28 714.62 611.28 815.96 498.98 952.24Z" />
		<path id="tassel" fill-rule="evenodd" class="shp1" d="M599.27 825.35C608.42 858.95 643.57 879.06 677.14 869.9C710.71 860.74 730.8 825.56 721.65 791.96C712.44 758.14 677.57 738.19 643.78 747.41C609.98 756.64 590.05 791.53 599.27 825.35ZM423.36 1191.34C421.48 1333.52 461.96 1543.48 557.4 1559.65C575.22 1562.67 607.33 1560.83 628.93 1537.6C699.43 1461.81 522.74 1258.42 562.58 1058.88C572.33 1010.06 634.58 894.77 609.53 872.32C592.31 856.88 553.37 874.52 541.06 880.87C453.09 926.28 425.08 1060.64 423.36 1191.34Z" />
	</g>
</svg>